/vscmnt/brussel_pixiu_data/_data_brussel/112/vsc11236/PredSimResults/SUBJ07mtu3D/worker9.mot
version=1
nRows=6
nColumns=50
inDegrees=yes
endheader
                time	         pelvis_tilt	         pelvis_list	     pelvis_rotation	           pelvis_tx	           pelvis_ty	           pelvis_tz	       hip_flexion_r	     hip_adduction_r	      hip_rotation_r	        knee_angle_r	       ankle_angle_r	         mtp_angle_r	       hip_flexion_l	     hip_adduction_l	      hip_rotation_l	        knee_angle_l	       ankle_angle_l	         mtp_angle_l	    lumbar_extension	      lumbar_bending	     lumbar_rotation	 ercspn_r/activation	 intobl_r/activation	 extobl_r/activation	    abd_r/activation	    add_r/activation	hamstrings_r/activation	bifemsh_r/activation	glut_max_r/activation	iliopsoas_r/activation	rect_fem_r/activation	  vasti_r/activation	gastroc_r/activation	 soleus_r/activation	tib_ant_r/activation	 ercspn_l/activation	 intobl_l/activation	 extobl_l/activation	    abd_l/activation	    add_l/activation	hamstrings_l/activation	bifemsh_l/activation	glut_max_l/activation	iliopsoas_l/activation	rect_fem_l/activation	  vasti_l/activation	gastroc_l/activation	 soleus_l/activation	tib_ant_l/activation	
          0.00000000	         -4.12013533	          0.07006037	          8.15641680	          0.00000000	          0.85043853	         -0.01294266	         29.73497597	         -2.10134952	         -3.46761768	         -6.03343181	          4.16961481	          0.26645420	        -14.22901352	          0.73672632	          4.34456496	         -8.21309341	          8.88354208	         25.98717475	         -9.48642084	         -1.89849132	         -1.93983665	          0.11369394	          0.16159934	          0.00999999	          0.02999949	          0.11240523	          0.05367608	          0.11577301	          0.06455543	          0.02726874	          0.01000005	          0.00999999	          0.00999999	          0.00999999	          0.37736878	          0.10704532	          0.00999999	          0.00999999	          0.03809666	          0.01000000	          0.01264196	          0.14425587	          0.01714840	          0.24017254	          0.01000020	          0.00999999	          0.12013087	          0.28507542	          0.02137599	
          0.01091893	         -4.13204264	          0.12772621	          8.12863068	          0.01548173	          0.84891336	         -0.01294098	         29.46708878	         -1.89729241	         -3.03659077	         -7.35178221	          3.88381039	          0.25178794	        -14.68100440	          0.72920100	          3.96560537	         -9.26574055	          8.02909538	         27.60678514	         -9.36139763	         -1.47481997	         -2.13289495	          0.09618923	          0.14737298	          0.00999999	          0.02538066	          0.09664200	          0.05041741	          0.10946995	          0.11243418	          0.02307035	          0.00999999	          0.00999999	          0.01951836	          0.01397081	          0.39786362	          0.12619104	          0.00999999	          0.01000000	          0.03223116	          0.01699746	          0.01390106	          0.12204573	          0.01450817	          0.20319474	          0.00999999	          0.00999999	          0.10163510	          0.26576378	          0.01808487	
          0.02183785	         -4.13849203	          0.17494062	          8.04895381	          0.03111900	          0.84760292	         -0.01287321	         29.13105709	         -1.73598077	         -2.60893905	         -8.61897291	          3.52116058	          0.24836062	        -15.01515204	          0.72441429	          3.54709910	        -10.54135022	          7.04995525	         29.18774291	         -9.22705243	         -1.03123783	         -2.31616361	          0.12116345	          0.12468292	          0.00999999	          0.09804630	          0.10636544	          0.04894309	          0.09989872	          0.12185153	          0.01951836	          0.00999999	          0.00999999	          0.01651324	          0.01181981	          0.44810298	          0.14309297	          0.00999999	          0.00999999	          0.02726874	          0.01438047	          0.01176082	          0.10325514	          0.01227445	          0.17191017	          0.01000000	          0.00999999	          0.08598700	          0.23964691	          0.01530046	
          0.03275678	         -4.14130074	          0.23349521	          7.91885588	          0.04673162	          0.84668017	         -0.01270859	         28.79911060	         -1.58589532	         -2.26001217	         -9.86629942	          3.09981943	          0.22857556	        -15.15538723	          0.74602949	          3.09615936	        -12.14502087	          5.91667080	         30.68346474	         -9.10418971	         -0.59739379	         -2.48794555	          0.12765539	          0.10548630	          0.00999999	          0.14465137	          0.13072040	          0.04264109	          0.08451796	          0.14248780	          0.01651324	          0.00999999	          0.00999999	          0.01397081	          0.00999999	          0.46822219	          0.18052405	          0.00999999	          0.00999999	          0.02307035	          0.01381991	          0.01000200	          0.08735762	          0.01038463	          0.14544228	          0.01000000	          0.00999999	          0.07274814	          0.20275003	          0.01294475	
          0.04367571	         -4.14029470	          0.29643778	          7.74629177	          0.06219574	          0.84626857	         -0.01244637	         28.52686622	         -1.43441584	         -1.96819677	        -11.24290086	          2.89172747	          0.21160793	        -15.03282830	          0.78513507	          2.61797883	        -14.17755379	          4.64833209	         31.97020879	         -8.99994295	         -0.16998831	         -2.64947510	          0.13743098	          0.08924526	          0.00999999	          0.18072747	          0.15138455	          0.04056479	          0.07150528	          0.16185578	          0.01397081	          0.00999999	          0.02086021	          0.01181981	          0.00999999	          0.47318639	          0.21036429	          0.00999999	          0.00999999	          0.01951836	          0.03049901	          0.01181976	          0.07390773	          0.00999999	          0.12304948	          0.01000000	          0.00999999	          0.06154758	          0.17153392	          0.01095173	
          0.05459463	         -4.13618681	          0.36495969	          7.53441035	          0.07743048	          0.84646222	         -0.01209946	         28.29649690	         -1.28514172	         -1.72877136	        -12.69543325	          2.86465237	          0.19492961	        -14.58450666	          0.84227674	          2.10247295	        -16.73167955	          3.26795888	         32.86537923	         -8.91602312	          0.24672881	         -2.79895165	          0.14025033	          0.07550475	          0.00999999	          0.20141121	          0.16990637	          0.04047307	          0.06049608	          0.16818054	          0.01181981	          0.00999999	          0.04852040	          0.01000000	          0.00999999	          0.46299018	          0.23422890	          0.00999999	          0.00999999	          0.01651324	          0.05384224	          0.01000014	          0.06252864	          0.00999999	          0.10410435	          0.00999999	          0.00999999	          0.05207150	          0.14512396	          0.00999999	
